<svg xmlns="http://www.w3.org/2000/svg" width="900" height="600" viewBox="0 0 900 600"><rect width="100%" height="100%" fill="#DDDDDD"/><path fill="#999999" d="M248.55 243.08h14.94v91.1h-8.7q-2.01 0-3.37-.66-1.35-.66-2.61-2.24l-47.57-60.73q.38 4.16.38 7.69v55.94h-14.93v-91.1h8.88q1.07 0 1.86.1.79.09 1.39.37.59.29 1.16.82.57.54 1.26 1.42L249 306.77q-.19-2.2-.32-4.34-.13-2.14-.13-3.97v-55.38Zm61.37 25.45q7.18 0 13.07 2.34 5.89 2.33 10.08 6.61t6.46 10.46q2.26 6.17 2.26 13.79 0 7.69-2.26 13.86-2.27 6.18-6.46 10.53-4.19 4.34-10.08 6.67-5.89 2.34-13.07 2.34-7.25 0-13.17-2.34-5.92-2.33-10.11-6.67-4.19-4.35-6.49-10.53-2.3-6.17-2.3-13.86 0-7.62 2.3-13.79 2.3-6.18 6.49-10.46 4.19-4.28 10.11-6.61 5.92-2.34 13.17-2.34Zm0 54.62q8.06 0 11.93-5.41 3.88-5.42 3.88-15.88t-3.88-15.94q-3.87-5.48-11.93-5.48-8.19 0-12.13 5.51-3.94 5.52-3.94 15.91 0 10.4 3.94 15.85 3.94 5.44 12.13 5.44Zm93.87-80.07v91.1h-17.01v-91.1h17.01Zm33.45 91.1h-15.56v-64.64h9.51q3.03 0 3.97 2.84l1.01 4.78q1.7-1.89 3.56-3.46t3.97-2.71q2.11-1.13 4.53-1.79 2.43-.67 5.33-.67 6.11 0 10.04 3.31 3.94 3.31 5.9 8.79 1.51-3.21 3.78-5.51 2.26-2.3 4.97-3.75 2.71-1.45 5.77-2.14 3.05-.7 6.14-.7 5.35 0 9.51 1.64t7 4.79q2.83 3.15 4.31 7.69 1.48 4.53 1.48 10.39v41.14H496.9v-41.14q0-6.17-2.71-9.29-2.71-3.12-7.94-3.12-2.39 0-4.44.82-2.05.82-3.59 2.36t-2.42 3.88q-.89 2.33-.89 5.35v41.14h-15.62v-41.14q0-6.49-2.62-9.45-2.61-2.96-7.65-2.96-3.4 0-6.33 1.67t-5.45 4.57v47.31Zm124.11-16.7v-10.89q-6.74.31-11.34 1.16-4.6.85-7.37 2.18-2.77 1.32-3.97 3.08-1.2 1.77-1.2 3.85 0 4.09 2.43 5.85 2.42 1.77 6.33 1.77 4.79 0 8.28-1.73 3.5-1.74 6.84-5.27Zm-32.89-33.95-2.77-4.98q11.15-10.2 26.84-10.2 5.67 0 10.14 1.85 4.48 1.86 7.56 5.17 3.09 3.31 4.7 7.91 1.6 4.6 1.6 10.08v40.82h-7.05q-2.21 0-3.41-.66-1.19-.66-1.89-2.68l-1.38-4.66q-2.46 2.2-4.79 3.87t-4.85 2.81q-2.52 1.13-5.39 1.73-2.86.6-6.33.6-4.09 0-7.56-1.1-3.46-1.11-5.98-3.31-2.52-2.21-3.91-5.48-1.39-3.28-1.39-7.63 0-2.45.82-4.88.82-2.42 2.68-4.63 1.86-2.2 4.82-4.16 2.96-1.95 7.28-3.4 4.31-1.45 10.05-2.36 5.73-.91 13.1-1.1v-3.78q0-6.49-2.77-9.61-2.77-3.12-8-3.12-3.78 0-6.27.88-2.49.88-4.38 1.99-1.89 1.1-3.43 1.98-1.55.88-3.44.88-1.64 0-2.77-.85-1.13-.85-1.83-1.98Zm86.31 16.76q2.9 0 5.04-.79 2.15-.79 3.56-2.17 1.42-1.39 2.14-3.34.73-1.96.73-4.29 0-4.79-2.87-7.59-2.86-2.8-8.6-2.8-5.73 0-8.6 2.8-2.86 2.8-2.86 7.59 0 2.27.72 4.22.73 1.96 2.14 3.37 1.42 1.42 3.59 2.21 2.18.79 5.01.79Zm17.58 36.79q0-1.89-1.13-3.09-1.14-1.2-3.09-1.86-1.95-.66-4.57-.97-2.61-.32-5.54-.48-2.93-.15-6.05-.28-3.12-.13-6.08-.5-2.58 1.45-4.19 3.4-1.61 1.95-1.61 4.53 0 1.71.85 3.19.86 1.48 2.71 2.55 1.86 1.07 4.82 1.67 2.96.59 7.25.59 4.35 0 7.5-.66 3.15-.66 5.19-1.82 2.05-1.17 3-2.78.94-1.6.94-3.49Zm-3.09-65.33h18.59v5.79q0 2.77-3.34 3.41l-5.8 1.07q1.33 3.33 1.33 7.3 0 4.79-1.93 8.67-1.92 3.87-5.32 6.58-3.4 2.71-8.03 4.19-4.63 1.48-9.99 1.48-1.89 0-3.65-.19t-3.47-.5q-3.02 1.82-3.02 4.09 0 1.95 1.8 2.87 1.79.91 4.75 1.29t6.74.47q3.78.1 7.75.41 3.97.32 7.75 1.1 3.78.79 6.74 2.49 2.96 1.7 4.76 4.63 1.79 2.93 1.79 7.53 0 4.29-2.11 8.32t-6.11 7.18q-4 3.15-9.83 5.07-5.82 1.92-13.26 1.92-7.3 0-12.72-1.41-5.42-1.42-9.01-3.78-3.59-2.37-5.36-5.45-1.76-3.09-1.76-6.43 0-4.54 2.74-7.59 2.74-3.06 7.53-4.88-2.58-1.33-4.1-3.53-1.51-2.21-1.51-5.8 0-1.45.54-2.99.53-1.54 1.57-3.06 1.04-1.51 2.62-2.86 1.57-1.36 3.71-2.43-4.91-2.64-7.71-7.05-2.81-4.41-2.81-10.34 0-4.78 1.92-8.66 1.93-3.87 5.36-6.61 3.43-2.74 8.13-4.19 4.69-1.45 10.23-1.45 4.16 0 7.82.85 3.65.85 6.67 2.49Zm40.7 22.68h29.36q0-3.03-.85-5.7-.85-2.68-2.55-4.7-1.7-2.01-4.32-3.18-2.61-1.16-6.08-1.16-6.74 0-10.61 3.84-3.88 3.84-4.95 10.9Zm39.69 9.38h-40q.37 4.98 1.76 8.6 1.39 3.63 3.65 5.99 2.27 2.36 5.39 3.53 3.12 1.16 6.9 1.16 3.78 0 6.52-.88 2.74-.88 4.79-1.95 2.05-1.07 3.59-1.96 1.54-.88 2.99-.88 1.95 0 2.9 1.45l4.47 5.67q-2.58 3.02-5.79 5.07-3.22 2.05-6.71 3.28-3.5 1.23-7.12 1.73-3.62.51-7.03.51-6.74 0-12.53-2.24-5.8-2.24-10.08-6.62-4.29-4.38-6.74-10.83-2.46-6.46-2.46-14.96 0-6.62 2.14-12.45 2.14-5.83 6.14-10.14 4-4.32 9.77-6.84 5.76-2.52 13.01-2.52 6.11 0 11.27 1.96 5.17 1.95 8.89 5.7 3.71 3.75 5.82 9.2 2.12 5.45 2.12 12.44 0 3.53-.76 4.76-.76 1.22-2.9 1.22Z"/></svg>